<svg version="1.1" viewBox="0.0 0.0 2560.0 1440.0" fill="none" stroke="none" stroke-linecap="square" stroke-miterlimit="10" xmlns:xlink="http://www.w3.org/1999/xlink" xmlns="http://www.w3.org/2000/svg"><clipPath id="p.0"><path d="m0 0l2560.0 0l0 1440.0l-2560.0 0l0 -1440.0z" clip-rule="nonzero"/></clipPath><g clip-path="url(#p.0)"><path fill="#000000" fill-opacity="0.0" d="m0 0l2560.0 0l0 1440.0l-2560.0 0z" fill-rule="evenodd"/><path fill="#eb4438" d="m0 925.3858l0 -925.3858l1048.7874 925.3858z" fill-rule="evenodd"/><path fill="#eb4438" d="m0 968.47766l0 466.74023l1048.7874 -466.74023z" fill-rule="evenodd"/><path fill="#eb4438" d="m835.28345 946.8058l0 0c0 -28.30133 49.587097 -51.24408 110.75592 -51.24408l0 0c61.168823 0 110.75592 22.942749 110.75592 51.24408l0 0c0 28.30133 -49.587097 51.24408 -110.75592 51.24408l0 0c-61.168823 0 -110.75592 -22.942749 -110.75592 -51.24408z" fill-rule="evenodd"/><path fill="#eb4438" d="m0 874.1732l859.6221 0l0 123.87402l-859.6221 0z" fill-rule="evenodd"/></g></svg>